<svg width="441" height="100" viewBox="0 0 441 100" fill="none" xmlns="http://www.w3.org/2000/svg">
<path d="M186.419 47.395V70.8039H193.22V45.3445C193.22 33.2983 186.334 27.4034 177.749 27.4034C172.223 27.4034 165.508 29.881 161.938 36.4594C159.472 30.3936 154.202 27.4034 148.082 27.4034C143.576 27.4034 137.456 29.5392 133.801 35.3487V28.5994H127V70.8039H133.801V47.395C133.801 37.2283 141.281 33.8109 146.381 33.8109C151.822 33.8109 156.752 37.2283 156.752 47.395V70.8039H163.553V47.395C163.553 37.2283 170.948 33.8109 176.049 33.8109C181.489 33.8109 186.419 37.2283 186.419 47.395Z" fill="white"/>
<path d="M213.336 72C217.671 72 223.282 70.2913 226.597 65.507V70.8039H233.397V40.4748C233.397 32.6148 227.702 27.4034 218.096 27.4034C209.511 27.4034 202.54 31.7605 200.925 41.3291H208.32C209.681 35.5196 213.846 33.8109 218.096 33.8109C223.707 33.8109 226.597 36.7157 226.597 40.4748V43.6359L212.146 47.4804C204.155 49.6162 200.245 53.2045 200.245 59.9538C200.245 68.2409 206.195 72 213.336 72ZM207.215 59.612C207.215 56.1947 209.001 54.2297 213.591 52.9482L226.597 49.4454V54.486C226.597 62.5168 219.881 65.9342 214.611 65.9342C210.786 65.9342 207.215 64.1401 207.215 59.612Z" fill="white"/>
<path d="M242.937 70.8039H249.738V28.5994H242.937V70.8039ZM241.662 16.895C241.662 19.6289 243.702 21.6793 246.338 21.6793C249.058 21.6793 251.098 19.6289 251.098 16.895C251.098 14.1611 249.058 12.1961 246.338 12.1961C243.702 12.1961 241.662 14.1611 241.662 16.895Z" fill="white"/>
<path d="M279.077 72C290.298 72 300.924 64.2255 300.924 49.7017C300.924 35.1779 290.298 27.4034 279.077 27.4034C267.771 27.4034 257.145 35.1779 257.145 49.7017C257.145 64.2255 267.771 72 279.077 72ZM264.286 49.7017C264.286 39.535 270.831 33.8109 279.077 33.8109C287.238 33.8109 293.868 39.535 293.868 49.7017C293.868 59.8683 287.238 65.5924 279.077 65.5924C270.831 65.5924 264.286 59.8683 264.286 49.7017Z" fill="white"/>
<path d="M309.149 70.8039H315.95V11H309.149V70.8039Z" fill="white"/>
<path d="M326.483 70.8039H333.283V28.5994H326.483V70.8039ZM325.208 16.895C325.208 19.6289 327.248 21.6793 329.883 21.6793C332.603 21.6793 334.643 19.6289 334.643 16.895C334.643 14.1611 332.603 12.1961 329.883 12.1961C327.248 12.1961 325.208 14.1611 325.208 16.895Z" fill="white"/>
<path d="M361.857 72C370.273 72 378.773 67.1303 381.494 57.5616H374.013C371.888 62.8585 367.213 65.5924 361.857 65.5924C354.037 65.5924 347.831 59.8683 347.831 49.7017C347.831 39.535 354.037 33.8109 361.857 33.8109C366.873 33.8109 371.548 36.2885 373.673 40.9874H381.324C378.348 32.0168 370.018 27.4034 361.857 27.4034C351.061 27.4034 340.691 35.1779 340.691 49.7017C340.691 64.2255 351.061 72 361.857 72Z" fill="white"/>
<path d="M398.939 72C403.274 72 408.884 70.2913 412.199 65.507V70.8039H419V40.4748C419 32.6148 413.305 27.4034 403.699 27.4034C395.113 27.4034 388.143 31.7605 386.528 41.3291H393.923C395.283 35.5196 399.449 33.8109 403.699 33.8109C409.309 33.8109 412.199 36.7157 412.199 40.4748V43.6359L397.748 47.4804C389.758 49.6162 385.848 53.2045 385.848 59.9538C385.848 68.2409 391.798 72 398.939 72ZM392.818 59.612C392.818 56.1947 394.603 54.2297 399.194 52.9482L412.199 49.4454V54.486C412.199 62.5168 405.484 65.9342 400.214 65.9342C396.388 65.9342 392.818 64.1401 392.818 59.612Z" fill="white"/>
<path d="M432 35.42H433.12V29.74L435.46 34.08H436.56L438.86 29.74V35.42H440.02V28H438.76L436 33.14L433.22 28H432V35.42ZM426 29.04H427.78V35.42H428.96V29.04H430.76V28H426V29.04Z" fill="white"/>
<path fill-rule="evenodd" clip-rule="evenodd" d="M50 100C77.6142 100 100 77.6142 100 50C100 22.3858 77.6142 0 50 0C22.3858 0 0 22.3858 0 50C0 77.6142 22.3858 100 50 100ZM17.9289 17.9289C15 20.8579 15 25.5719 15 35L15 65C15 74.4281 15 79.1421 17.9289 82.0711C20.8579 85 25.5719 85 35 85H65C74.4281 85 79.1421 85 82.0711 82.0711C85 79.1421 85 74.4281 85 65V35C85 25.5719 85 20.8579 82.0711 17.9289C79.1421 15 74.4281 15 65 15L35 15C25.5719 15 20.8579 15 17.9289 17.9289Z" fill="white"/>
<path d="M42.9289 28.7868C46.2623 25.4534 47.9289 23.7868 50 23.7868C52.0711 23.7868 53.7377 25.4534 57.0711 28.7868L71.2132 42.9289C74.5465 46.2622 76.2132 47.9289 76.2132 50C76.2132 52.071 74.5465 53.7377 71.2132 57.071L57.0711 71.2132C53.7377 74.5465 52.0711 76.2132 50 76.2132C47.9289 76.2132 46.2623 74.5465 42.9289 71.2132L28.7868 57.071C25.4535 53.7377 23.7868 52.071 23.7868 50C23.7868 47.9289 25.4535 46.2622 28.7868 42.9289L42.9289 28.7868Z" fill="white"/>
</svg>
